<svg width="22" height="21" viewBox="0 0 22 21" fill="none" xmlns="http://www.w3.org/2000/svg">
<path d="M11 1.3125C5.6375 1.3125 1.375 5.38125 1.375 10.5C1.375 15.6188 5.6375 19.6875 11 19.6875C16.3625 19.6875 20.625 15.6188 20.625 10.5C20.625 5.38125 16.3625 1.3125 11 1.3125ZM11 18.375C6.4625 18.375 2.75 14.8313 2.75 10.5C2.75 6.16875 6.4625 2.625 11 2.625C15.5375 2.625 19.25 6.16875 19.25 10.5C19.25 14.8313 15.5375 18.375 11 18.375Z" fill="#C4C4C4"/>
<path d="M14.7125 15.0938L11 11.55L7.2875 15.0938L6.1875 14.0437L9.9 10.5L6.1875 6.95625L7.2875 5.90625L11 9.45L14.7125 5.90625L15.8125 6.95625L12.1 10.5L15.8125 14.0437L14.7125 15.0938Z" fill="#C4C4C4"/>
</svg>
