<svg width="30" height="31" viewBox="0 0 30 31" fill="currentColor" xmlns="http://www.w3.org/2000/svg">
<path fill-rule="evenodd" d="M27.1787 15.7991L15.9287 2.9866C15.455 2.44591 14.545 2.44591 14.0712 2.9866L2.82123 15.7991C2.6593 15.9831 2.55301 16.2113 2.51529 16.4561C2.47756 16.7008 2.51002 16.9515 2.60873 17.1777C2.80873 17.6403 3.25623 17.9375 3.74998 17.9375H6.24998V26.9063C6.24998 27.2461 6.38168 27.572 6.6161 27.8122C6.85052 28.0525 7.16846 28.1875 7.49998 28.1875H11.25C11.5815 28.1875 11.8994 28.0525 12.1339 27.8122C12.3683 27.572 12.5 27.2461 12.5 26.9063V21.7813H17.5V26.9063C17.5 27.2461 17.6317 27.572 17.8661 27.8122C18.1005 28.0525 18.4185 28.1875 18.75 28.1875H22.5C22.8315 28.1875 23.1494 28.0525 23.3839 27.8122C23.6183 27.572 23.75 27.2461 23.75 26.9063V17.9375H26.25C26.4921 17.9386 26.7292 17.8674 26.9325 17.7327C27.1358 17.598 27.2965 17.4056 27.395 17.1789C27.4934 16.9522 27.5254 16.701 27.487 16.456C27.4486 16.211 27.3415 15.9828 27.1787 15.7991Z" fill="#000"/>
</svg>
