<svg width="19" height="22" viewBox="0 0 19 22" fill="none" xmlns="http://www.w3.org/2000/svg">
<path d="M9.5 1.10161e-08C6.99682 -0.000115928 4.59474 0.914932 2.81585 2.54626C1.03696 4.17759 0.0250318 6.39336 0 8.71197C0 14.74 8.37188 21.4499 8.72813 21.7359C8.94322 21.9064 9.21696 22 9.5 22C9.78304 22 10.0568 21.9064 10.2719 21.7359C10.6875 21.4499 19 14.74 19 8.71197C18.975 6.39336 17.963 4.17759 16.1841 2.54626C14.4053 0.914932 12.0032 -0.000115928 9.5 1.10161e-08ZM9.5 12.1C8.67797 12.1 7.8744 11.8742 7.19091 11.4511C6.50742 11.0281 5.9747 10.4268 5.66013 9.7233C5.34555 9.01981 5.26324 8.2457 5.42361 7.49888C5.58398 6.75205 5.97983 6.06605 6.56109 5.52762C7.14235 4.98919 7.88292 4.62252 8.68916 4.47396C9.49539 4.32541 10.3311 4.40165 11.0905 4.69305C11.85 4.98445 12.4991 5.47791 12.9558 6.11103C13.4125 6.74416 13.6562 7.48852 13.6562 8.24997C13.6562 9.27105 13.2184 10.2503 12.4389 10.9723C11.6595 11.6943 10.6023 12.1 9.5 12.1Z" fill="black" fill-opacity="0.89"/>
</svg>
