<svg width="30" height="30" viewBox="0 0 30 30" fill="none" xmlns="http://www.w3.org/2000/svg">
<path d="M15 21.25L16.25 18.75V12.3225C18.4012 11.7637 20 9.8225 20 7.5C20 4.7425 17.7575 2.5 15 2.5C12.2425 2.5 10 4.7425 10 7.5C10 9.8225 11.5988 11.7637 13.75 12.3225V18.75L15 21.25Z" fill="#000"/>
<path d="M20.3338 13.2037L19.6675 15.6137C22.9063 16.5087 25 18.23 25 20C25 22.365 20.8938 25 15 25C9.10625 25 5 22.365 5 20C5 18.23 7.09375 16.5087 10.3338 15.6125L9.6675 13.2025C5.24625 14.425 2.5 17.0287 2.5 20C2.5 24.205 7.99125 27.5 15 27.5C22.0088 27.5 27.5 24.205 27.5 20C27.5 17.0287 24.7538 14.425 20.3338 13.2037Z" fill="#000"/>
</svg>
