<svg width="28" height="28" viewBox="0 0 28 28" fill="none" xmlns="http://www.w3.org/2000/svg">
<path d="M14 2.43475C12.0909 2.43475 10.5994 3.10685 9.52557 4.45106C8.4517 5.79526 7.91477 7.51356 7.91477 9.60595C7.90152 12.2056 8.77652 14.2663 10.5398 15.788C10.7652 15.9909 10.8447 16.2509 10.7784 16.5679L10.321 17.481C10.1752 17.7853 9.95975 18.0231 9.67472 18.1943C9.38968 18.3655 8.78977 18.6096 7.875 18.9266C7.83523 18.9393 6.99669 19.1992 5.35938 19.7065C3.72206 20.2137 2.85038 20.4927 2.74432 20.5434C1.63068 20.9873 0.901515 21.4502 0.556818 21.932C0.185606 22.7309 0 24.7536 0 28H28C28 24.7536 27.8144 22.7309 27.4432 21.932C27.0985 21.4502 26.3693 20.9873 25.2557 20.5434C25.1496 20.4927 24.2779 20.2137 22.6406 19.7065C21.0033 19.1992 20.1648 18.9393 20.125 18.9266C19.2102 18.6096 18.6103 18.3655 18.3253 18.1943C18.0402 18.0231 17.8248 17.7853 17.679 17.481L17.2216 16.5679C17.1553 16.2509 17.2348 15.9909 17.4602 15.788C19.2235 14.2663 20.0985 12.2056 20.0852 9.60595C20.0852 7.51356 19.5483 5.79526 18.4744 4.45106C17.4006 3.10685 15.9091 2.43475 14 2.43475Z" fill="#C4C4C4"/>
</svg>
