<svg width="85" height="86" viewBox="0 0 85 86" fill="none" xmlns="http://www.w3.org/2000/svg">
<g clip-path="url(#clip0_19_209)">
<rect width="85" height="86" rx="42.5" fill="#BDBDBD"/>
<path d="M42.5 7.47827C36.7045 7.47827 32.1768 9.54258 28.9169 13.6712C25.657 17.7998 24.027 23.0775 24.027 29.5041C23.9867 37.4887 26.643 43.818 31.9957 48.4919C32.6799 49.1151 32.9214 49.9135 32.7202 50.8872L31.3317 53.6916C30.889 54.6264 30.235 55.3567 29.3697 55.8825C28.5044 56.4083 26.6832 57.1581 23.9062 58.1318C23.7855 58.1708 21.2399 58.9692 16.2695 60.5272C11.2991 62.0852 8.65294 62.942 8.33097 63.0978C4.95028 64.4611 2.73674 65.8827 1.69034 67.3628C0.563447 69.8166 0 76.029 0 86H85C85 76.029 84.4366 69.8166 83.3097 67.3628C82.2633 65.8827 80.0497 64.4611 76.669 63.0978C76.3471 62.942 73.7009 62.0852 68.7305 60.5272C63.7601 58.9692 61.2145 58.1708 61.0938 58.1318C58.3168 57.1581 56.4956 56.4083 55.6303 55.8825C54.765 55.3567 54.111 54.6264 53.6683 53.6916L52.2798 50.8872C52.0786 49.9135 52.3201 49.1151 53.0043 48.4919C58.357 43.818 61.0133 37.4887 60.973 29.5041C60.973 23.0775 59.343 17.7998 56.0831 13.6712C52.8232 9.54258 48.2955 7.47827 42.5 7.47827Z" fill="#1A2872"/>
</g>
<defs>
<clipPath id="clip0_19_209">
<rect width="85" height="86" rx="42.5" fill="white"/>
</clipPath>
</defs>
</svg>
